<svg width="24" height="24" viewBox="0 0 24 24" fill="none" xmlns="http://www.w3.org/2000/svg">
<g clip-path="url(#clip0_0_3)">
<rect width="24" height="24" fill="white"/>
<path d="M0 12C0 18.6274 5.37258 24 12 24C18.6274 24 24 18.6274 24 12C24 5.37258 18.6274 0 12 0C5.37258 0 0 5.37258 0 12Z" fill="#FA323C"/>
<path d="M17.1 4.48888H9.5C8.45066 4.48888 7.6 5.33954 7.6 6.38888C7.6 7.43823 8.45066 8.28888 9.5 8.28888H17.1C18.1493 8.28888 19 7.43823 19 6.38888C19 5.33954 18.1493 4.48888 17.1 4.48888Z" fill="white"/>
<path d="M17.1 15.6889H9.5C8.45066 15.6889 7.6 16.5395 7.6 17.5889C7.6 18.6382 8.45066 19.4889 9.5 19.4889H17.1C18.1493 19.4889 19 18.6382 19 17.5889C19 16.5395 18.1493 15.6889 17.1 15.6889Z" fill="white"/>
<path d="M14.5 10.0889H6.9C5.85066 10.0889 5 10.9395 5 11.9889C5 13.0382 5.85066 13.8889 6.9 13.8889H14.5C15.5493 13.8889 16.4 13.0382 16.4 11.9889C16.4 10.9395 15.5493 10.0889 14.5 10.0889Z" fill="white"/>
</g>
<defs>
<clipPath id="clip0_0_3">
<rect width="24" height="24" fill="white"/>
</clipPath>
</defs>
</svg>
