<svg xmlns="http://www.w3.org/2000/svg" width="25" height="25" viewBox="0 0 25 25" fill="none">
    <path d="M12.5763 9.67609C10.856 9.67609 9.45206 11.08 9.45206 12.8003C9.45206 14.5206 10.856 15.9245 12.5763 15.9245C14.2966 15.9245 15.7005 14.5206 15.7005 12.8003C15.7005 11.08 14.2966 9.67609 12.5763 9.67609ZM21.9466 12.8003C21.9466 11.5066 21.9583 10.2245 21.8857 8.93312C21.813 7.43312 21.4708 6.10187 20.3739 5.00499C19.2747 3.90578 17.9458 3.56593 16.4458 3.49328C15.1521 3.42062 13.87 3.43234 12.5786 3.43234C11.2849 3.43234 10.0028 3.42062 8.71144 3.49328C7.21144 3.56593 5.88019 3.90812 4.78331 5.00499C3.6841 6.10421 3.34425 7.43312 3.2716 8.93312C3.19894 10.2269 3.21066 11.5089 3.21066 12.8003C3.21066 14.0917 3.19894 15.3761 3.2716 16.6675C3.34425 18.1675 3.68644 19.4987 4.78331 20.5956C5.88253 21.6948 7.21144 22.0347 8.71144 22.1073C10.0052 22.18 11.2872 22.1683 12.5786 22.1683C13.8724 22.1683 15.1544 22.18 16.4458 22.1073C17.9458 22.0347 19.2771 21.6925 20.3739 20.5956C21.4732 19.4964 21.813 18.1675 21.8857 16.6675C21.9607 15.3761 21.9466 14.0941 21.9466 12.8003ZM12.5763 17.6073C9.91613 17.6073 7.76925 15.4605 7.76925 12.8003C7.76925 10.1402 9.91613 7.99327 12.5763 7.99327C15.2364 7.99327 17.3833 10.1402 17.3833 12.8003C17.3833 15.4605 15.2364 17.6073 12.5763 17.6073ZM17.5802 8.91906C16.9591 8.91906 16.4575 8.41749 16.4575 7.7964C16.4575 7.17531 16.9591 6.67374 17.5802 6.67374C18.2013 6.67374 18.7028 7.17531 18.7028 7.7964C18.703 7.94388 18.6741 8.08995 18.6178 8.22624C18.5614 8.36253 18.4787 8.48637 18.3744 8.59065C18.2702 8.69494 18.1463 8.77762 18.01 8.83398C17.8737 8.89033 17.7277 8.91924 17.5802 8.91906Z" fill="currentColor" />
</svg>