<svg xmlns="http://www.w3.org/2000/svg" width="24" height="25" viewBox="0 0 24 25" fill="none">
    <path d="M13 12.7998C13 16.1135 10.3137 18.7998 7 18.7998C3.68629 18.7998 1 16.1135 1 12.7998C1 9.48609 3.68629 6.7998 7 6.7998C10.3137 6.7998 13 9.48609 13 12.7998Z" fill="currentColor"/>
    <path d="M23 12.7998C23 15.5612 22.5523 17.7998 22 17.7998C21.4477 17.7998 21 15.5612 21 12.7998C21 10.0384 21.4477 7.7998 22 7.7998C22.5523 7.7998 23 10.0384 23 12.7998Z" fill="currentColor"/>
    <path d="M17 18.7998C18.6569 18.7998 20 16.1135 20 12.7998C20 9.48609 18.6569 6.7998 17 6.7998C15.3431 6.7998 14 9.48609 14 12.7998C14 16.1135 15.3431 18.7998 17 18.7998Z" fill="currentColor"/>
</svg>