<svg xmlns="http://www.w3.org/2000/svg" width="24" height="25" viewBox="0 0 24 25" fill="none">
    <g clip-path="url(#clip0_2059_6436)">
        <path fill-rule="evenodd" clip-rule="evenodd" d="M9.58613 15.9028V9.16857C11.9768 10.2935 13.8283 11.3802 16.0181 12.5518C14.212 13.5534 11.9768 14.6773 9.58613 15.9028ZM22.9092 5.81935C22.4968 5.27604 21.794 4.85312 21.0457 4.7131C18.8463 4.29544 5.12518 4.29426 2.92698 4.7131C2.32693 4.82559 1.7926 5.09749 1.3336 5.51994C-0.600435 7.31502 0.00559941 16.9415 0.471777 18.5008C0.667809 19.1758 0.921228 19.6625 1.24038 19.982C1.65157 20.4045 2.21456 20.6954 2.86123 20.8258C4.67214 21.2004 14.0016 21.4098 21.0074 20.882C21.6529 20.7696 22.2243 20.4693 22.6749 20.0289C24.4631 18.241 24.3412 8.07397 22.9092 5.81935Z" fill="currentColor"/>
    </g>
    <defs>
        <clipPath id="clip0_2059_6436">
            <rect width="24" height="24" fill="currentColor" transform="translate(0 0.799805)"/>
        </clipPath>
    </defs>
</svg>