<svg width="157.6" height="27.6" viewBox="0 0 788 138" fill="none" xmlns="http://www.w3.org/2000/svg">
<path d="M147.362 0H47.5798C41.6651 0 36.1979 3.15501 33.2443 8.27911L2.96961 60.7209C0.0159879 65.845 0.0159879 72.155 2.96961 77.2717L33.2443 129.721C36.1979 134.845 41.6651 138 47.5798 138H147.362C153.276 138 158.744 134.845 161.697 129.721L191.979 77.2717C194.933 72.1476 194.933 65.8375 191.979 60.7134L161.697 8.27164C158.744 3.15501 153.276 0 147.362 0ZM75.3185 64.5845L52.0252 24.2406C50.5334 21.6525 52.3981 18.4229 55.3816 18.4229H141.201C144.356 18.4229 147.272 20.1085 148.846 22.8384L172.139 63.1823C173.631 65.7704 171.766 69 168.783 69H82.9637C79.8086 68.9925 76.8923 67.3144 75.3185 64.5845Z" fill="#E63328"/>
<path d="M273.981 117.898L254.991 84.3641C254.469 83.4392 253.484 82.8724 252.425 82.8724H247.376C246.152 82.8724 245.168 83.8644 245.168 85.0801V117.488C245.168 118.793 244.109 119.852 242.803 119.852H228.498C227.192 119.852 226.133 118.793 226.133 117.488V28.372C226.133 26.4775 227.67 24.9485 229.557 24.9485H261.756C269.103 24.9485 275.353 26.2388 280.522 28.827C285.691 31.4077 289.562 34.8983 292.15 39.2989C294.731 43.6995 296.028 48.6148 296.028 54.0522C296.028 60.31 294.216 65.9487 290.591 70.9833C287.302 75.548 282.558 78.8223 276.36 80.8138C275.375 81.1271 274.935 82.2757 275.457 83.1633L295.268 116.727C296.088 118.115 295.089 119.867 293.477 119.867H277.337C275.942 119.852 274.659 119.107 273.981 117.898ZM245.168 66.5081C245.168 67.6567 246.1 68.5965 247.256 68.5965H261.077C266.246 68.5965 270.095 67.3509 272.638 64.8597C275.174 62.3686 276.442 58.9003 276.442 54.4549C276.442 50.1065 275.174 46.7278 272.638 44.3261C270.102 41.9244 266.246 40.7235 261.077 40.7235H247.256C246.108 40.7235 245.168 41.6559 245.168 42.812V66.5081Z" fill="#E63328"/>
<path d="M372.801 87.9H321.926C320.643 87.9 319.636 89.0561 319.86 90.3166C320.62 94.6202 322.418 98.0736 325.26 100.684C328.609 103.765 332.741 105.308 337.634 105.308C344.063 105.308 348.799 102.802 351.857 97.7827C352.454 96.8056 353.498 96.194 354.639 96.194H370.332C371.787 96.194 372.816 97.6559 372.286 99.0134C369.937 105.01 366.096 110.03 360.748 114.08C354.58 118.749 347.017 121.084 338.036 121.084C330.786 121.084 324.283 119.472 318.524 116.258C312.766 113.043 308.276 108.486 305.062 102.594C301.839 96.7012 300.236 89.9064 300.236 82.1941C300.236 74.3998 301.825 67.5528 304.994 61.6604C308.164 55.7681 312.61 51.2332 318.323 48.0633C324.036 44.8934 330.607 43.3047 338.036 43.3047C345.197 43.3047 351.611 44.8486 357.28 47.9291C362.941 51.0095 367.341 55.3877 370.467 61.0489C373.592 66.7174 375.158 73.2214 375.158 80.5607C375.158 82.5372 375.061 84.3646 374.875 86.0502C374.755 87.1094 373.86 87.9 372.801 87.9ZM353.192 75.1159C354.43 75.1159 355.437 74.0343 355.266 72.8036C354.736 68.9699 353.021 65.8224 350.142 63.3535C346.696 60.4074 342.482 58.938 337.492 58.938C332.778 58.938 328.81 60.3626 325.595 63.2193C322.955 65.5613 321.157 68.6492 320.195 72.4904C319.86 73.818 320.837 75.1233 322.209 75.1233H353.192V75.1159Z" fill="#E63328"/>
<path d="M386.3 61.6606C389.336 55.7683 393.483 51.2335 398.741 48.0635C403.999 44.8936 409.847 43.3049 416.284 43.3049C421.177 43.3049 425.846 44.3715 430.291 46.4972C433.618 48.0934 436.437 50.0848 438.742 52.4642C439.525 53.2771 440.897 52.7252 440.897 51.5989V21.6002C440.897 20.295 441.956 19.2358 443.262 19.2358H457.836C459.141 19.2358 460.2 20.295 460.2 21.6002V117.489C460.2 118.794 459.141 119.853 457.836 119.853H443.262C441.956 119.853 440.897 118.794 440.897 117.489V112.476C440.897 111.305 439.458 110.791 438.682 111.671C436.601 114.05 434.028 116.057 430.97 117.683C426.703 119.95 421.766 121.084 416.149 121.084C409.802 121.084 403.999 119.45 398.741 116.191C393.483 112.924 389.336 108.329 386.3 102.385C383.264 96.4478 381.743 89.6306 381.743 81.9184C381.75 74.3031 383.264 67.553 386.3 61.6606ZM438.317 70.2903C436.504 66.9787 434.058 64.4427 430.977 62.675C427.897 60.9073 424.585 60.0198 421.05 60.0198C417.514 60.0198 414.255 60.8849 411.257 62.6004C408.266 64.3234 405.842 66.8369 403.984 70.1486C402.127 73.4602 401.195 77.376 401.195 81.9109C401.195 86.4458 402.12 90.4063 403.984 93.8075C405.842 97.2086 408.288 99.8117 411.324 101.624C414.359 103.437 417.596 104.347 421.042 104.347C424.578 104.347 427.889 103.466 430.97 101.691C434.05 99.9236 436.497 97.3876 438.309 94.076C440.122 90.7718 441.031 86.8038 441.031 82.1794C441.031 77.57 440.129 73.6019 438.317 70.2903Z" fill="#E63328"/>
<path d="M502.715 46.6986C507.019 44.4312 511.942 43.2975 517.468 43.2975C523.905 43.2975 529.73 44.8862 534.944 48.0561C540.158 51.2335 544.282 55.7385 547.318 61.5861C550.354 67.4337 551.875 74.2136 551.875 81.9184C551.875 89.6232 550.354 96.4478 547.318 102.385C544.282 108.322 540.158 112.924 534.944 116.191C529.73 119.458 523.905 121.084 517.468 121.084C511.845 121.084 506.929 119.972 502.715 117.75C499.605 116.109 496.942 114.11 494.742 111.753C493.966 110.925 492.579 111.477 492.579 112.611V117.489C492.579 118.794 491.52 119.853 490.215 119.853H475.909C474.604 119.853 473.544 118.794 473.544 117.489V21.6002C473.544 20.295 474.604 19.2358 475.909 19.2358H490.215C491.52 19.2358 492.579 20.295 492.579 21.6002V51.9196C492.579 53.0757 493.996 53.6053 494.772 52.7476C496.927 50.3683 499.575 48.3544 502.715 46.6986ZM529.641 70.1561C527.784 66.8519 525.337 64.3308 522.294 62.6079C519.259 60.885 515.969 60.0272 512.434 60.0272C508.988 60.0272 505.751 60.9074 502.715 62.6825C499.68 64.4502 497.226 67.0085 495.368 70.3649C493.511 73.7213 492.579 77.6595 492.579 82.1943C492.579 86.7292 493.511 90.6748 495.368 94.0237C497.226 97.3801 499.672 99.9384 502.715 101.706C505.751 103.474 508.988 104.361 512.434 104.361C515.969 104.361 519.251 103.459 522.294 101.639C525.33 99.8266 527.776 97.2459 529.641 93.8895C531.498 90.5331 532.43 86.5502 532.43 81.9258C532.423 77.3835 531.491 73.4677 529.641 70.1561Z" fill="#E63328"/>
<path d="M630.362 46.8923V117.488C630.362 118.794 629.302 119.853 627.997 119.853H613.692C612.386 119.853 611.327 118.794 611.327 117.488V46.8923C611.327 45.587 612.386 44.5279 613.692 44.5279H627.997C629.302 44.5204 630.362 45.587 630.362 46.8923Z" fill="#E63328"/>
<path d="M692.755 94.4263H708.119C709.85 94.4263 711.118 96.1269 710.551 97.7678C708.269 104.376 704.472 109.754 699.177 113.871C693.008 118.682 685.318 121.084 676.07 121.084C668.812 121.084 662.383 119.472 656.752 116.265C651.135 113.043 646.742 108.501 643.557 102.661C640.387 96.8056 638.806 89.9884 638.806 82.2016C638.806 74.3998 640.387 67.5826 643.557 61.7276C646.742 55.8874 651.135 51.3451 656.752 48.1379C662.383 44.9158 668.812 43.3047 676.07 43.3047C685.4 43.3047 693.12 45.6542 699.244 50.3158C704.517 54.3361 708.291 59.751 710.566 66.5682C711.118 68.2315 709.902 69.9619 708.149 69.9619H692.755C691.74 69.9619 690.83 69.3578 690.427 68.4329C689.316 65.8895 687.683 63.8384 685.512 62.287C682.924 60.4372 679.732 59.5049 675.928 59.5049C670.483 59.5049 666.187 61.474 663.017 65.4121C659.832 69.3578 658.251 74.9592 658.251 82.209C658.251 89.3619 659.832 94.9186 663.017 98.8642C666.187 102.81 670.483 104.771 675.928 104.771C683.043 104.771 687.877 101.833 690.427 95.9628C690.83 95.023 691.748 94.4263 692.755 94.4263Z" fill="#E63328"/>
<path d="M763.321 118.07L741.132 90.2198C740.483 89.4069 739.178 89.8693 739.178 90.906V117.496C739.178 118.801 738.118 119.861 736.813 119.861H722.507C721.202 119.861 720.143 118.801 720.143 117.496V21.6002C720.143 20.295 721.202 19.2358 722.507 19.2358H736.813C738.118 19.2358 739.178 20.295 739.178 21.6002V73.3334C739.178 74.3702 740.49 74.8252 741.132 74.0122L763.045 46.3257C763.948 45.192 765.313 44.5281 766.767 44.5281H785.071C786.689 44.5281 787.547 46.4301 786.48 47.6458L756.959 81.2769C756.437 81.8736 756.437 82.7761 756.966 83.3653L786.697 116.72C787.778 117.929 786.913 119.853 785.294 119.853H767.028C765.589 119.853 764.224 119.197 763.321 118.07Z" fill="#E63328"/>
<path d="M630.362 19.2878V32.0943C630.362 33.3995 629.302 34.4587 627.997 34.4587H613.692C612.386 34.4587 611.327 33.3995 611.327 32.0943V19.2878C611.327 17.9825 612.386 16.9234 613.692 16.9234H627.997C629.302 16.9159 630.362 17.9751 630.362 19.2878Z" fill="#E63328"/>
<path d="M588.93 46.8328C592.204 44.9532 595.866 43.8493 599.924 43.5286C601.289 43.4242 602.46 44.528 602.46 45.893V61.049C602.46 62.3542 601.401 63.4133 600.095 63.4133H597.433C591.451 63.4133 586.938 64.823 583.903 67.6275C580.867 70.4394 579.346 75.3322 579.346 82.3135V117.481C579.346 118.786 578.286 119.845 576.981 119.845H562.675C561.37 119.845 560.311 118.786 560.311 117.481V46.885C560.311 45.5797 561.37 44.5206 562.675 44.5206H576.981C578.286 44.5206 579.346 45.5797 579.346 46.885V53.2547C579.346 54.1273 580.457 54.5152 580.979 53.8215C583.164 50.9574 585.812 48.6303 588.93 46.8328Z" fill="#E63328"/>
</svg>
